<svg width="187" height="50" viewBox="0 0 187 50" fill="none" xmlns="http://www.w3.org/2000/svg">
<path d="M0 10C0 4.47715 4.47715 0 10 0H40C45.5229 0 50 4.47715 50 10V40C50 45.5229 45.5228 50 40 50H10C4.47715 50 0 45.5228 0 40V10Z" fill="#EA580C"/>
<path d="M22.9321 17.3896H15.6177V13.6128H34.3823V17.3896H26.9995V38H22.9321V17.3896Z" fill="white"/>
<path d="M84.4741 12.08V16.92H76.3941V38H70.7141V16.92H62.4341V12.08H84.4741ZM91.5356 19.4C93.8823 19.4 95.6423 19.8667 96.8156 20.8C98.0156 21.7067 98.6156 23.2133 98.6156 25.32V38H93.9756L93.5356 36.6C92.549 37.32 91.5623 37.8267 90.5756 38.12C89.6156 38.4133 88.6023 38.56 87.5356 38.56C86.4156 38.56 85.429 38.3467 84.5756 37.92C83.7223 37.4933 83.0556 36.9067 82.5756 36.16C82.1223 35.3867 81.8956 34.5067 81.8956 33.52C81.8956 31.4133 82.9356 29.8133 85.0156 28.72C87.0956 27.6 89.8156 26.9733 93.1756 26.84V26.4C93.1756 25.6533 93.0956 25.0667 92.9356 24.64C92.8023 24.2133 92.549 23.9067 92.1756 23.72C91.8023 23.5067 91.2823 23.4 90.6156 23.4C88.9356 23.4 87.029 24.08 84.8956 25.44L82.8156 22.16C84.2556 21.2267 85.6556 20.5333 87.0156 20.08C88.4023 19.6267 89.909 19.4 91.5356 19.4ZM87.5356 32.84C87.5356 33.4267 87.709 33.88 88.0556 34.2C88.4023 34.4933 88.909 34.64 89.5756 34.64C90.669 34.64 91.869 34.28 93.1756 33.56V30.08C91.229 30.1867 89.8023 30.4933 88.8956 31C87.989 31.5067 87.5356 32.12 87.5356 32.84ZM103.22 38V10.48L108.66 9.96V38H103.22ZM129.455 27.36C129.455 27.8933 129.401 28.8267 129.295 30.16H117.775C117.935 31.6533 118.428 32.76 119.255 33.48C120.081 34.1733 121.068 34.52 122.215 34.52C123.068 34.52 123.895 34.4 124.695 34.16C125.495 33.92 126.348 33.5333 127.255 33L129.095 36.28C128.135 37 127.028 37.56 125.775 37.96C124.521 38.36 123.161 38.56 121.695 38.56C119.935 38.56 118.348 38.24 116.935 37.6C115.548 36.96 114.428 35.9467 113.575 34.56C112.748 33.1467 112.335 31.3333 112.335 29.12C112.335 27.0933 112.681 25.3467 113.375 23.88C114.095 22.4133 115.121 21.3067 116.455 20.56C117.815 19.7867 119.415 19.4 121.255 19.4C123.015 19.4 124.508 19.7467 125.735 20.44C126.988 21.1333 127.921 22.08 128.535 23.28C129.148 24.48 129.455 25.84 129.455 27.36ZM121.375 23.08C120.441 23.08 119.681 23.3733 119.095 23.96C118.535 24.52 118.148 25.4133 117.935 26.64H124.295V26.52C124.295 25.2933 124.028 24.4133 123.495 23.88C122.961 23.3467 122.255 23.08 121.375 23.08ZM144.662 19.4C146.502 19.4 147.889 19.8667 148.822 20.8C149.756 21.7067 150.222 23.04 150.222 24.8V38H144.782V26.4C144.782 25.6533 144.702 25.08 144.542 24.68C144.409 24.2533 144.169 23.9467 143.822 23.76C143.476 23.5733 142.982 23.48 142.342 23.48C141.276 23.48 140.022 23.9067 138.582 24.76V38H133.142V20.12L138.582 19.6V21.36C139.569 20.7467 140.556 20.2667 141.542 19.92C142.556 19.5733 143.596 19.4 144.662 19.4ZM166.472 37.24C164.899 38.12 163.139 38.56 161.192 38.56C160.206 38.56 159.286 38.3733 158.432 38C157.606 37.6 156.926 36.9733 156.392 36.12C155.859 35.2667 155.592 34.1867 155.592 32.88V24.28H152.312V20H155.592V15.96L161.032 15.2V20H166.032L165.472 24.28H161.032V32.04C161.032 32.84 161.166 33.4 161.432 33.72C161.726 34.04 162.126 34.2 162.632 34.2C163.006 34.2 163.366 34.16 163.712 34.08C164.059 33.9733 164.486 33.8133 164.992 33.6L166.472 37.24ZM176.966 38.56C174.966 38.56 173.26 38.1333 171.846 37.28C170.46 36.4267 169.42 35.28 168.726 33.84C168.033 32.3733 167.686 30.7467 167.686 28.96C167.686 26.6667 168.126 24.8133 169.006 23.4C169.913 21.9867 171.1 20.9733 172.566 20.36C174.033 19.72 175.673 19.4 177.486 19.4C179.513 19.4 181.22 19.8133 182.606 20.64C184.02 21.44 185.073 22.56 185.766 24C186.46 25.44 186.806 27.1067 186.806 29C186.806 31.2133 186.366 33.04 185.486 34.48C184.633 35.8933 183.46 36.9333 181.966 37.6C180.5 38.24 178.833 38.56 176.966 38.56ZM177.246 34.52C178.686 34.52 179.7 34.0267 180.286 33.04C180.873 32.0267 181.166 30.6667 181.166 28.96C181.166 27.1467 180.846 25.7733 180.206 24.84C179.593 23.9067 178.633 23.44 177.326 23.44C175.913 23.44 174.886 23.9067 174.246 24.84C173.606 25.7467 173.286 27.12 173.286 28.96C173.286 30.6933 173.606 32.0533 174.246 33.04C174.913 34.0267 175.913 34.52 177.246 34.52Z" fill="#102A43"/>
</svg>
